<svg width="100" height="100" viewBox="0 0 100 100" fill="none" xmlns="http://www.w3.org/2000/svg">
<path fill-rule="evenodd" clip-rule="evenodd" d="M75.3319 25.6681C70.4207 20.7576 64.1638 17.4136 57.3522 16.059C50.5406 14.7044 43.4803 15.4001 37.064 18.058C30.6478 20.716 25.1638 25.2168 21.3055 30.9914C17.4471 36.766 15.3878 43.555 15.3878 50.5C15.3878 57.445 17.4471 64.234 21.3055 70.0086C25.1638 75.7832 30.6478 80.284 37.064 82.942C43.4803 85.5999 50.5406 86.2955 57.3522 84.941C64.1638 83.5864 70.4207 80.2424 75.3319 75.3319C75.937 74.768 76.7374 74.461 77.5645 74.4756C78.3915 74.4902 79.1806 74.8252 79.7654 75.4101C80.3503 75.995 80.6854 76.7841 80.7 77.6111C80.7145 78.4381 80.4076 79.2385 79.8437 79.8437C63.6395 96.0521 37.3647 96.0521 21.1563 79.8437C4.9479 63.6395 4.9479 37.3647 21.1563 21.1563C37.3605 4.9479 63.6353 4.9479 79.8437 21.1563C83.7027 25.0058 86.7631 29.5797 88.8493 34.6154C90.9354 39.6511 92.0062 45.0493 92 50.5C92 54.65 90.7401 58.5318 88.5565 61.4432C86.3687 64.3589 83.1083 66.4615 79.2308 66.4615C75.383 66.4615 72.1396 64.3887 69.9518 61.5071C67.6438 65.5865 64.1116 68.8369 59.8549 70.7985C55.5981 72.7601 50.8323 73.3336 46.2317 72.4378C41.6311 71.542 37.4286 69.2223 34.2188 65.8069C31.009 62.3915 28.9544 58.0532 28.3457 53.4059C27.7369 48.7586 28.6048 44.0376 30.8267 39.9106C33.0485 35.7837 36.5117 32.4599 40.7264 30.4094C44.941 28.3589 49.6938 27.6855 54.3122 28.4846C58.9305 29.2836 63.1808 31.5146 66.4615 34.8619V34.5385C66.4615 33.6918 66.7979 32.8798 67.3965 32.2812C67.9952 31.6825 68.8072 31.3462 69.6538 31.3462C70.5005 31.3462 71.3125 31.6825 71.9111 32.2812C72.5098 32.8798 72.8461 33.6918 72.8461 34.5385V50.5C72.8461 53.4029 73.7315 55.9056 75.0127 57.6125C76.2896 59.3193 77.8176 60.0769 79.2308 60.0769C80.6439 60.0769 82.1677 59.3193 83.4488 57.6125C84.7258 55.9099 85.6154 53.3986 85.6154 50.5C85.6223 45.8875 84.7173 41.3191 82.9525 37.0575C81.1877 32.7959 78.5978 28.9253 75.3319 25.6681ZM66.4615 50.5C66.4615 46.2667 64.7799 42.2069 61.7865 39.2135C58.7931 36.2201 54.7333 34.5385 50.5 34.5385C46.2667 34.5385 42.2068 36.2201 39.2135 39.2135C36.2201 42.2069 34.5385 46.2667 34.5385 50.5C34.5385 54.7333 36.2201 58.7931 39.2135 61.7865C42.2068 64.7799 46.2667 66.4615 50.5 66.4615C54.7333 66.4615 58.7931 64.7799 61.7865 61.7865C64.7799 58.7931 66.4615 54.7333 66.4615 50.5Z" fill="#6CD2EA"/>
</svg>
