<svg width="100" height="100" viewBox="0 0 100 100" fill="none" xmlns="http://www.w3.org/2000/svg">
<g clip-path="url(#clip0_1444_1572)">
<path fill-rule="evenodd" clip-rule="evenodd" d="M70.3538 14.4115C50.8276 3.13808 25.8619 9.82762 14.5885 29.3538C3.31503 48.88 10.0046 73.8457 29.5307 85.1191C49.0569 96.3926 74.0226 89.703 85.2961 70.1769C96.5695 50.6507 89.88 25.685 70.3538 14.4115ZM60.8242 35.3555C60.6083 34.5518 60.0823 33.8667 59.3616 33.4506C58.6409 33.0345 57.7846 32.9215 56.9806 33.1364L39.8221 37.734C39.4111 37.8287 39.0235 38.0052 38.6822 38.253C38.341 38.5008 38.0532 38.8147 37.8359 39.1762C37.6186 39.5376 37.4764 39.9391 37.4177 40.3567C37.3589 40.7743 37.3849 41.1994 37.4941 41.6068C37.6032 42.0141 37.7933 42.3953 38.0529 42.7276C38.3126 43.0598 38.6365 43.3364 39.0054 43.5408C39.3743 43.7452 39.7805 43.8732 40.1999 43.9171C40.6193 43.9611 41.0433 43.9201 41.4465 43.7967L51.2841 41.1607L39.3722 61.7928C38.9557 62.5141 38.8429 63.3712 39.0585 64.1757C39.274 64.9802 39.8003 65.666 40.5216 66.0825C41.2428 66.4989 42.1 66.6117 42.9044 66.3962C43.7089 66.1806 44.3948 65.6543 44.8112 64.9331L56.7232 44.3009L59.3591 54.1385C59.4538 54.5495 59.6304 54.9371 59.8781 55.2783C60.1259 55.6196 60.4399 55.9074 60.8013 56.1247C61.1627 56.3419 61.5642 56.4842 61.9818 56.5429C62.3994 56.6016 62.8246 56.5757 63.2319 56.4665C63.6392 56.3574 64.0204 56.1673 64.3527 55.9076C64.685 55.648 64.9616 55.324 65.166 54.9552C65.3703 54.5863 65.4983 54.18 65.5423 53.7606C65.5862 53.3412 65.5453 52.9173 65.4218 52.514L60.8242 35.3555Z" fill="#6CD2EA"/>
</g>
<defs>
<clipPath id="clip0_1444_1572">
<rect width="100" height="100" fill="white"/>
</clipPath>
</defs>
</svg>
