<svg width="100" height="100" viewBox="0 0 100 100" fill="none" xmlns="http://www.w3.org/2000/svg">
<path fill-rule="evenodd" clip-rule="evenodd" d="M50 9.375C27.5625 9.375 9.375 27.5625 9.375 50C9.375 72.4375 27.5625 90.625 50 90.625C72.4375 90.625 90.625 72.4375 90.625 50C90.625 27.5625 72.4375 9.375 50 9.375ZM35.6125 18.7708C30.1272 21.2993 25.4049 25.2285 21.9213 30.1626C18.4376 35.0968 16.3155 40.8618 15.7687 46.877C15.222 52.8922 16.2698 58.9453 18.8066 64.4268C21.3435 69.9082 25.2799 74.6244 30.2194 78.1005C35.1589 81.5766 40.9271 83.6899 46.9432 84.2274C52.9592 84.765 59.0107 83.7079 64.4883 81.1627C69.9658 78.6174 74.676 74.6738 78.1445 69.729C81.6131 64.7841 83.7175 59.0127 84.2458 52.9958L82.3292 51.0792C81.6155 50.3652 81.0218 49.5407 80.5708 48.6375L76.0708 39.6375C75.9484 39.3932 75.7696 39.1816 75.5493 39.0199C75.329 38.8583 75.0734 38.7513 74.8037 38.7077C74.5339 38.6642 74.2577 38.6854 73.9977 38.7695C73.7377 38.8536 73.5014 38.9983 73.3083 39.1917C72.8736 39.6259 72.3307 39.936 71.7358 40.0899C71.1409 40.2437 70.5157 40.2357 69.925 40.0667L64.6208 38.5542C63.7722 38.3156 62.8663 38.3871 62.0656 38.756C61.265 39.1248 60.6219 39.7668 60.2517 40.5669C59.8815 41.3669 59.8084 42.2727 60.0456 43.1218C60.2828 43.9708 60.8146 44.7076 61.5458 45.2L63.9917 46.825C66.45 48.4708 66.8 51.95 64.7083 54.0417L63.875 54.875C62.9958 55.7583 62.5 56.95 62.5 58.1917V59.9C62.5 61.6042 62.0417 63.2708 61.1667 64.725L55.6875 73.8542C54.9064 75.1569 53.8012 76.235 52.4795 76.9835C51.1578 77.732 49.6647 78.1252 48.1458 78.125C46.98 78.125 45.8619 77.6619 45.0375 76.8375C44.2131 76.0131 43.75 74.895 43.75 73.7292V68.8458C43.75 65.0125 41.4167 61.5667 37.8583 60.1417L35.1333 59.0542C33.1469 58.26 31.4918 56.8104 30.4428 54.9459C29.3939 53.0814 29.0141 50.9142 29.3667 48.8042L29.3958 48.6292C29.5895 47.47 29.9994 46.3577 30.6042 45.35L30.9792 44.725C31.9742 43.068 33.4572 41.759 35.2249 40.9773C36.9927 40.1956 38.9588 39.9794 40.8542 40.3583L45.7625 41.3417C46.9175 41.5721 48.117 41.3592 49.1222 40.7454C50.1274 40.1316 50.8648 39.1619 51.1875 38.0292L52.0542 34.9875C52.3544 33.9367 52.278 32.814 51.8383 31.8135C51.3985 30.813 50.623 29.9977 49.6458 29.5083L46.875 28.125L46.4958 28.5042C45.6253 29.3747 44.5918 30.0653 43.4543 30.5364C42.3169 31.0075 41.0978 31.25 39.8667 31.25H39.1167C38.0792 31.25 37.0875 31.6667 36.3583 32.3917C35.6901 33.066 34.7977 33.4718 33.8503 33.5324C32.9029 33.5929 31.9661 33.3039 31.2175 32.7201C30.4689 32.1362 29.9603 31.2982 29.7882 30.3646C29.616 29.4309 29.7922 28.4666 30.2833 27.6542L35.6125 18.7708Z" fill="#6CD2EA"/>
</svg>
