<svg width="100" height="100" viewBox="0 0 100 100" fill="none" xmlns="http://www.w3.org/2000/svg">
<path fill-rule="evenodd" clip-rule="evenodd" d="M14 25.4286C14 22.3975 15.2041 19.4906 17.3474 17.3474C19.4906 15.2041 22.3975 14 25.4286 14H30.6552C33.9314 14 36.7886 16.2324 37.5848 19.4095L41.7943 36.259C42.1354 37.6228 42.0665 39.057 41.5962 40.3818C41.1259 41.7066 40.2752 42.8632 39.1505 43.7067L34.2248 47.4019C33.7105 47.7867 33.6 48.3505 33.7448 48.7429C35.8948 54.5899 39.2899 59.8998 43.695 64.305C48.1002 68.7101 53.4101 72.1052 59.2571 74.2552C59.6495 74.4 60.2095 74.2895 60.5981 73.7752L64.2933 68.8495C65.1368 67.7248 66.2934 66.8741 67.6182 66.4038C68.943 65.9335 70.3772 65.8646 71.741 66.2057L88.5905 70.4152C91.7676 71.2114 94 74.0686 94 77.3486V82.5714C94 85.6025 92.7959 88.5094 90.6527 90.6527C88.5094 92.7959 85.6025 94 82.5714 94H74C40.8648 94 14 67.1352 14 34V25.4286Z" fill="#6CD2EA"/>
</svg>
