<svg width="100" height="100" viewBox="0 0 100 100" fill="none" xmlns="http://www.w3.org/2000/svg">
<g clip-path="url(#clip0_1438_1486)">
<path fill-rule="evenodd" clip-rule="evenodd" d="M14 24.2857C14 21.5578 15.0837 18.9416 17.0126 17.0126C18.9416 15.0837 21.5578 14 24.2857 14H28.9897C31.9383 14 34.5097 16.0091 35.2263 18.8686L39.0149 34.0331C39.3219 35.2606 39.2599 36.5513 38.8366 37.7436C38.4133 38.936 37.6476 39.9769 36.6354 40.736L32.2023 44.0617C31.7394 44.408 31.64 44.9154 31.7703 45.2686C33.7053 50.5309 36.7609 55.3098 40.7255 59.2745C44.6902 63.2391 49.4691 66.2947 54.7314 68.2297C55.0846 68.36 55.5886 68.2606 55.9383 67.7977L59.264 63.3646C60.0231 62.3524 61.064 61.5867 62.2564 61.1634C63.4487 60.7401 64.7394 60.6781 65.9669 60.9851L81.1314 64.7737C83.9909 65.4903 86 68.0617 86 71.0137V75.7143C86 78.4422 84.9163 81.0584 82.9874 82.9874C81.0584 84.9163 78.4422 86 75.7143 86H68C38.1783 86 14 61.8217 14 32V24.2857Z" fill="url(#paint0_linear_1438_1486)"/>
</g>
<defs>
<linearGradient id="paint0_linear_1438_1486" x1="50" y1="14" x2="50" y2="86" gradientUnits="userSpaceOnUse">
<stop stop-color="#23C1E6"/>
<stop offset="1"/>
</linearGradient>
<clipPath id="clip0_1438_1486">
<rect width="100" height="100" fill="white"/>
</clipPath>
</defs>
</svg>
